<svg width="239" height="39" viewBox="0 0 239 39" fill="none" xmlns="http://www.w3.org/2000/svg">
<g filter="url(#filter0_d_3_540)">
<path d="M4.74941 2.74H13.9294V7.09H10.4494V26.47H13.9294V30.82H4.74941V2.74ZM23.011 8.47C25.711 8.47 27.771 9.09 29.191 10.33C30.611 11.55 31.321 13.43 31.321 15.97V25H26.011V22.9C25.191 24.48 23.591 25.27 21.211 25.27C19.951 25.27 18.861 25.05 17.941 24.61C17.021 24.17 16.321 23.58 15.841 22.84C15.381 22.08 15.151 21.22 15.151 20.26C15.151 18.72 15.741 17.53 16.921 16.69C18.101 15.83 19.921 15.4 22.381 15.4H25.621C25.521 13.68 24.371 12.82 22.171 12.82C21.391 12.82 20.601 12.95 19.801 13.21C19.001 13.45 18.321 13.79 17.761 14.23L15.841 10.36C16.741 9.76 17.831 9.3 19.111 8.98C20.411 8.64 21.711 8.47 23.011 8.47ZM22.801 21.67C23.461 21.67 24.041 21.51 24.541 21.19C25.041 20.87 25.401 20.4 25.621 19.78V18.37H23.161C21.501 18.37 20.671 18.92 20.671 20.02C20.671 20.52 20.861 20.92 21.241 21.22C21.621 21.52 22.141 21.67 22.801 21.67ZM40.3489 10.69C40.9289 9.95 41.6789 9.4 42.5989 9.04C43.5389 8.66 44.6089 8.47 45.8089 8.47V13.6C45.2889 13.54 44.8589 13.51 44.5189 13.51C43.2989 13.51 42.3389 13.84 41.6389 14.5C40.9589 15.16 40.6189 16.17 40.6189 17.53V25H34.9189V8.74H40.3489V10.69ZM59.8791 24.34C59.3991 24.64 58.8091 24.87 58.1091 25.03C57.4291 25.19 56.6991 25.27 55.9191 25.27C53.7991 25.27 52.1691 24.75 51.0291 23.71C49.8891 22.67 49.3191 21.12 49.3191 19.06V13.6H46.9491V9.34H49.3191V5.11H55.0191V9.34H58.7391V13.6H55.0191V19C55.0191 19.58 55.1691 20.04 55.4691 20.38C55.7891 20.7 56.2091 20.86 56.7291 20.86C57.3891 20.86 57.9691 20.69 58.4691 20.35L59.8791 24.34ZM78.2283 16.9C78.2283 16.94 78.1983 17.41 78.1383 18.31H66.3183C66.5583 19.15 67.0183 19.8 67.6983 20.26C68.3983 20.7 69.2683 20.92 70.3083 20.92C71.0883 20.92 71.7583 20.81 72.3183 20.59C72.8983 20.37 73.4783 20.01 74.0583 19.51L77.0583 22.63C75.4783 24.39 73.1683 25.27 70.1283 25.27C68.2283 25.27 66.5583 24.91 65.1183 24.19C63.6783 23.47 62.5583 22.47 61.7583 21.19C60.9783 19.91 60.5883 18.46 60.5883 16.84C60.5883 15.24 60.9683 13.81 61.7283 12.55C62.5083 11.27 63.5783 10.27 64.9383 9.55C66.2983 8.83 67.8283 8.47 69.5283 8.47C71.1483 8.47 72.6183 8.81 73.9383 9.49C75.2583 10.15 76.2983 11.12 77.0583 12.4C77.8383 13.66 78.2283 15.16 78.2283 16.9ZM69.5583 12.52C68.6783 12.52 67.9383 12.77 67.3383 13.27C66.7583 13.77 66.3883 14.45 66.2283 15.31H72.8883C72.7283 14.45 72.3483 13.77 71.7483 13.27C71.1683 12.77 70.4383 12.52 69.5583 12.52ZM102.036 8.47C104.036 8.47 105.626 9.07 106.806 10.27C108.006 11.47 108.606 13.28 108.606 15.7V25H102.906V16.63C102.906 15.49 102.686 14.65 102.246 14.11C101.826 13.57 101.226 13.3 100.446 13.3C99.5864 13.3 98.8964 13.6 98.3764 14.2C97.8564 14.8 97.5964 15.71 97.5964 16.93V25H91.8964V16.63C91.8964 14.41 91.0764 13.3 89.4364 13.3C88.5564 13.3 87.8564 13.6 87.3364 14.2C86.8164 14.8 86.5564 15.71 86.5564 16.93V25H80.8564V8.74H86.2864V10.45C86.8864 9.79 87.5964 9.3 88.4164 8.98C89.2564 8.64 90.1664 8.47 91.1464 8.47C92.2864 8.47 93.3064 8.68 94.2064 9.1C95.1064 9.52 95.8364 10.16 96.3964 11.02C97.0364 10.2 97.8464 9.57 98.8264 9.13C99.8064 8.69 100.876 8.47 102.036 8.47ZM132.454 4V25H127.564L118.294 13.81V25H112.474V4H117.364L126.634 15.19V4H132.454ZM136.374 8.74H142.074V25H136.374V8.74ZM139.224 6.94C138.184 6.94 137.344 6.65 136.704 6.07C136.064 5.49 135.744 4.77 135.744 3.91C135.744 3.05 136.064 2.33 136.704 1.75C137.344 1.17 138.184 0.879999 139.224 0.879999C140.264 0.879999 141.104 1.16 141.744 1.72C142.384 2.26 142.704 2.96 142.704 3.82C142.704 4.72 142.384 5.47 141.744 6.07C141.104 6.65 140.264 6.94 139.224 6.94ZM153.158 19.3L151.478 21.01V25H145.778V2.74H151.478V14.41L157.298 8.74H164.048L157.298 15.7L164.618 25H157.718L153.158 19.3ZM183.152 8.74V25H177.722V23.26C177.122 23.92 176.402 24.42 175.562 24.76C174.722 25.1 173.832 25.27 172.892 25.27C170.792 25.27 169.112 24.65 167.852 23.41C166.612 22.17 165.992 20.31 165.992 17.83V8.74H171.692V16.9C171.692 18.12 171.922 19.01 172.382 19.57C172.842 20.13 173.512 20.41 174.392 20.41C175.292 20.41 176.022 20.1 176.582 19.48C177.162 18.84 177.452 17.87 177.452 16.57V8.74H183.152ZM186.823 2.74H192.523V25H186.823V2.74ZM196.227 8.74H201.927V25H196.227V8.74ZM199.077 6.94C198.037 6.94 197.197 6.65 196.557 6.07C195.917 5.49 195.597 4.77 195.597 3.91C195.597 3.05 195.917 2.33 196.557 1.75C197.197 1.17 198.037 0.879999 199.077 0.879999C200.117 0.879999 200.957 1.16 201.597 1.72C202.237 2.26 202.557 2.96 202.557 3.82C202.557 4.72 202.237 5.47 201.597 6.07C200.957 6.65 200.117 6.94 199.077 6.94ZM216.222 8.47C218.242 8.47 219.862 9.07 221.082 10.27C222.322 11.47 222.942 13.28 222.942 15.7V25H217.242V16.63C217.242 14.41 216.352 13.3 214.572 13.3C213.592 13.3 212.802 13.62 212.202 14.26C211.622 14.9 211.332 15.86 211.332 17.14V25H205.632V8.74H211.062V10.51C211.702 9.85 212.462 9.35 213.342 9.01C214.222 8.65 215.182 8.47 216.222 8.47ZM225.05 30.82V26.47H228.53V7.09H225.05V2.74H234.23V30.82H225.05Z" fill="#F3F3F3"/>
<path d="M4.74941 2.74V1.74H3.74941V2.74H4.74941ZM13.9294 2.74H14.9294V1.74H13.9294V2.74ZM13.9294 7.09V8.09H14.9294V7.09H13.9294ZM10.4494 7.09V6.09H9.44941V7.09H10.4494ZM10.4494 26.47H9.44941V27.47H10.4494V26.47ZM13.9294 26.47H14.9294V25.47H13.9294V26.47ZM13.9294 30.82V31.82H14.9294V30.82H13.9294ZM4.74941 30.82H3.74941V31.82H4.74941V30.82ZM4.74941 3.74H13.9294V1.74H4.74941V3.74ZM12.9294 2.74V7.09H14.9294V2.74H12.9294ZM13.9294 6.09H10.4494V8.09H13.9294V6.09ZM9.44941 7.09V26.47H11.4494V7.09H9.44941ZM10.4494 27.47H13.9294V25.47H10.4494V27.47ZM12.9294 26.47V30.82H14.9294V26.47H12.9294ZM13.9294 29.82H4.74941V31.82H13.9294V29.82ZM5.74941 30.82V2.74H3.74941V30.82H5.74941ZM29.191 10.33L28.5332 11.0833L28.5393 11.0885L29.191 10.33ZM31.321 25V26H32.321V25H31.321ZM26.011 25H25.011V26H26.011V25ZM26.011 22.9H27.011L25.1234 22.4394L26.011 22.9ZM17.941 24.61L17.5095 25.5121L17.5095 25.5121L17.941 24.61ZM15.841 22.84L14.9855 23.3578L14.9935 23.3711L15.002 23.3842L15.841 22.84ZM16.921 16.69L17.5009 17.5047L17.51 17.4981L16.921 16.69ZM25.621 15.4V16.4H26.6808L26.6193 15.342L25.621 15.4ZM19.801 13.21L20.0883 14.1678L20.0992 14.1646L20.1101 14.161L19.801 13.21ZM17.761 14.23L16.8652 14.6744L17.4117 15.7761L18.3788 15.0163L17.761 14.23ZM15.841 10.36L15.2863 9.52795L14.5541 10.0161L14.9452 10.8044L15.841 10.36ZM19.111 8.98L19.3535 9.9502L19.364 9.94746L19.111 8.98ZM24.541 21.19L25.08 22.0323L25.08 22.0323L24.541 21.19ZM25.621 19.78L26.5634 20.1144L26.621 19.9522V19.78H25.621ZM25.621 18.37H26.621V17.37H25.621V18.37ZM21.241 21.22L20.6213 22.0049L20.6213 22.0049L21.241 21.22ZM23.011 9.47C25.5722 9.47 27.3604 10.0591 28.5332 11.0832L29.8487 9.57677C28.1815 8.12089 25.8497 7.47 23.011 7.47V9.47ZM28.5393 11.0885C29.6668 12.0572 30.321 13.6121 30.321 15.97H32.321C32.321 13.2479 31.5551 11.0428 29.8426 9.5715L28.5393 11.0885ZM30.321 15.97V25H32.321V15.97H30.321ZM31.321 24H26.011V26H31.321V24ZM27.011 25V22.9H25.011V25H27.011ZM25.1234 22.4394C24.5336 23.5758 23.3636 24.27 21.211 24.27V26.27C23.8183 26.27 25.8484 25.3842 26.8986 23.3606L25.1234 22.4394ZM21.211 24.27C20.0659 24.27 19.1298 24.0701 18.3724 23.7079L17.5095 25.5121C18.5921 26.0299 19.836 26.27 21.211 26.27V24.27ZM18.3724 23.7079C17.5922 23.3347 17.0448 22.8584 16.6799 22.2958L15.002 23.3842C15.5971 24.3016 16.4497 25.0053 17.5095 25.5121L18.3724 23.7079ZM16.6965 22.3222C16.3386 21.7309 16.151 21.0527 16.151 20.26H14.151C14.151 21.3873 14.4233 22.4291 14.9855 23.3578L16.6965 22.3222ZM16.151 20.26C16.151 19.0195 16.6035 18.1435 17.5009 17.5047L16.341 15.8753C14.8785 16.9165 14.151 18.4205 14.151 20.26H16.151ZM17.51 17.4981C18.437 16.8225 20.0018 16.4 22.381 16.4V14.4C19.8402 14.4 17.7649 14.8375 16.332 15.8819L17.51 17.4981ZM22.381 16.4H25.621V14.4H22.381V16.4ZM26.6193 15.342C26.5559 14.2523 26.1409 13.3062 25.2824 12.6642C24.4643 12.0524 23.3786 11.82 22.171 11.82V13.82C23.1633 13.82 23.7527 14.0176 24.0846 14.2658C24.376 14.4838 24.586 14.8277 24.6227 15.458L26.6193 15.342ZM22.171 11.82C21.2781 11.82 20.3839 11.9691 19.4919 12.259L20.1101 14.161C20.8181 13.9309 21.5039 13.82 22.171 13.82V11.82ZM19.5136 12.2522C18.6141 12.522 17.817 12.9142 17.1432 13.4437L18.3788 15.0163C18.8249 14.6658 19.3879 14.378 20.0883 14.1678L19.5136 12.2522ZM18.6568 13.7856L16.7368 9.91557L14.9452 10.8044L16.8652 14.6744L18.6568 13.7856ZM16.3957 11.192C17.182 10.6679 18.1611 10.2482 19.3535 9.95014L18.8684 8.00986C17.5009 8.35175 16.3 8.85213 15.2863 9.52795L16.3957 11.192ZM19.364 9.94746C20.5842 9.62833 21.7992 9.47 23.011 9.47V7.47C21.6228 7.47 20.2378 7.65167 18.8579 8.01254L19.364 9.94746ZM22.801 22.67C23.63 22.67 24.4015 22.4666 25.08 22.0323L24.0019 20.3477C23.6805 20.5534 23.292 20.67 22.801 20.67V22.67ZM25.08 22.0323C25.7875 21.5795 26.2776 20.9198 26.5634 20.1144L24.6785 19.4456C24.5243 19.8802 24.2944 20.1605 24.0019 20.3477L25.08 22.0323ZM26.621 19.78V18.37H24.621V19.78H26.621ZM25.621 17.37H23.161V19.37H25.621V17.37ZM23.161 17.37C22.2522 17.37 21.3962 17.5148 20.7411 17.9489C20.0137 18.4309 19.671 19.1761 19.671 20.02H21.671C21.671 19.7639 21.7433 19.6841 21.8459 19.6161C22.0207 19.5002 22.4097 19.37 23.161 19.37V17.37ZM19.671 20.02C19.671 20.8144 19.9921 21.5081 20.6213 22.0049L21.8606 20.4351C21.7298 20.3319 21.671 20.2256 21.671 20.02H19.671ZM20.6213 22.0049C21.2323 22.4872 21.9971 22.67 22.801 22.67V20.67C22.2849 20.67 22.0096 20.5528 21.8606 20.4351L20.6213 22.0049ZM40.3489 10.69H39.3489V13.5869L41.1359 11.3069L40.3489 10.69ZM42.5989 9.04L42.9633 9.9713L42.9737 9.96711L42.5989 9.04ZM45.8089 8.47H46.8089V7.47H45.8089V8.47ZM45.8089 13.6L45.6942 14.5934L46.8089 14.722V13.6H45.8089ZM41.6389 14.5L40.9529 13.7724L40.9476 13.7774L40.9424 13.7824L41.6389 14.5ZM40.6189 25V26H41.6189V25H40.6189ZM34.9189 25H33.9189V26H34.9189V25ZM34.9189 8.74V7.74H33.9189V8.74H34.9189ZM40.3489 8.74H41.3489V7.74H40.3489V8.74ZM41.1359 11.3069C41.6 10.7148 42.2009 10.2696 42.9633 9.97124L42.2345 8.10876C41.1568 8.53044 40.2578 9.18518 39.5618 10.0731L41.1359 11.3069ZM42.9737 9.96711C43.7748 9.64322 44.7142 9.47 45.8089 9.47V7.47C44.5036 7.47 43.3029 7.67678 42.2241 8.11289L42.9737 9.96711ZM44.8089 8.47V13.6H46.8089V8.47H44.8089ZM45.9235 12.6066C45.3834 12.5443 44.9118 12.51 44.5189 12.51V14.51C44.806 14.51 45.1944 14.5357 45.6942 14.5934L45.9235 12.6066ZM44.5189 12.51C43.1151 12.51 41.8845 12.894 40.9529 13.7724L42.3249 15.2276C42.7933 14.786 43.4827 14.51 44.5189 14.51V12.51ZM40.9424 13.7824C39.9971 14.7 39.6189 16.0185 39.6189 17.53H41.6189C41.6189 16.3215 41.9207 15.62 42.3353 15.2176L40.9424 13.7824ZM39.6189 17.53V25H41.6189V17.53H39.6189ZM40.6189 24H34.9189V26H40.6189V24ZM35.9189 25V8.74H33.9189V25H35.9189ZM34.9189 9.74H40.3489V7.74H34.9189V9.74ZM39.3489 8.74V10.69H41.3489V8.74H39.3489ZM59.8791 24.34L60.4091 25.188L61.0892 24.763L60.822 24.0068L59.8791 24.34ZM58.1091 25.03L57.8863 24.0551L57.8801 24.0566L58.1091 25.03ZM51.0291 23.71L50.3551 24.4488L50.3551 24.4488L51.0291 23.71ZM49.3191 13.6H50.3191V12.6H49.3191V13.6ZM46.9491 13.6H45.9491V14.6H46.9491V13.6ZM46.9491 9.34V8.34H45.9491V9.34H46.9491ZM49.3191 9.34V10.34H50.3191V9.34H49.3191ZM49.3191 5.11V4.11H48.3191V5.11H49.3191ZM55.0191 5.11H56.0191V4.11H55.0191V5.11ZM55.0191 9.34H54.0191V10.34H55.0191V9.34ZM58.7391 9.34H59.7391V8.34H58.7391V9.34ZM58.7391 13.6V14.6H59.7391V13.6H58.7391ZM55.0191 13.6V12.6H54.0191V13.6H55.0191ZM55.4691 20.38L54.7193 21.0416L54.7399 21.065L54.762 21.0871L55.4691 20.38ZM58.4691 20.35L59.412 20.0168L58.9797 18.7935L57.9068 19.5231L58.4691 20.35ZM59.3491 23.492C58.9852 23.7194 58.5054 23.9136 57.8863 24.0551L58.3319 26.0049C59.1128 25.8264 59.813 25.5606 60.4091 25.188L59.3491 23.492ZM57.8801 24.0566C57.2833 24.197 56.6308 24.27 55.9191 24.27V26.27C56.7674 26.27 57.575 26.183 58.3381 26.0034L57.8801 24.0566ZM55.9191 24.27C53.9545 24.27 52.5995 23.7891 51.7031 22.9712L50.3551 24.4488C51.7387 25.7109 53.6437 26.27 55.9191 26.27V24.27ZM51.7031 22.9712C50.8339 22.1783 50.3191 20.9375 50.3191 19.06H48.3191C48.3191 21.3025 48.9443 23.1617 50.3551 24.4488L51.7031 22.9712ZM50.3191 19.06V13.6H48.3191V19.06H50.3191ZM49.3191 12.6H46.9491V14.6H49.3191V12.6ZM47.9491 13.6V9.34H45.9491V13.6H47.9491ZM46.9491 10.34H49.3191V8.34H46.9491V10.34ZM50.3191 9.34V5.11H48.3191V9.34H50.3191ZM49.3191 6.11H55.0191V4.11H49.3191V6.11ZM54.0191 5.11V9.34H56.0191V5.11H54.0191ZM55.0191 10.34H58.7391V8.34H55.0191V10.34ZM57.7391 9.34V13.6H59.7391V9.34H57.7391ZM58.7391 12.6H55.0191V14.6H58.7391V12.6ZM54.0191 13.6V19H56.0191V13.6H54.0191ZM54.0191 19C54.0191 19.7537 54.2171 20.4725 54.7193 21.0416L56.2189 19.7184C56.1211 19.6075 56.0191 19.4063 56.0191 19H54.0191ZM54.762 21.0871C55.2978 21.6229 55.9868 21.86 56.7291 21.86V19.86C56.4314 19.86 56.2804 19.7771 56.1762 19.6729L54.762 21.0871ZM56.7291 21.86C57.5704 21.86 58.3504 21.64 59.0314 21.1769L57.9068 19.5231C57.5878 19.74 57.2078 19.86 56.7291 19.86V21.86ZM57.5262 20.6832L58.9362 24.6732L60.822 24.0068L59.412 20.0168L57.5262 20.6832ZM78.1383 18.31V19.31H79.0739L79.1361 18.3765L78.1383 18.31ZM66.3183 18.31V17.31H64.9926L65.3568 18.5847L66.3183 18.31ZM67.6983 20.26L67.138 21.0883L67.1519 21.0977L67.1661 21.1066L67.6983 20.26ZM72.3183 20.59L71.9636 19.6549L71.9527 19.6592L72.3183 20.59ZM74.0583 19.51L74.7792 18.8169L74.1227 18.1342L73.4054 18.7526L74.0583 19.51ZM77.0583 22.63L77.8025 23.298L78.4231 22.6066L77.7792 21.9369L77.0583 22.63ZM65.1183 24.19L65.5655 23.2956L65.1183 24.19ZM61.7583 21.19L60.9043 21.7104L60.9103 21.72L61.7583 21.19ZM61.7283 12.55L60.8744 12.0296L60.872 12.0335L61.7283 12.55ZM64.9383 9.55L64.4704 8.66621L64.4704 8.66621L64.9383 9.55ZM73.9383 9.49L73.4803 10.379L73.4911 10.3844L73.9383 9.49ZM77.0583 12.4L76.1985 12.9105L76.2032 12.9185L76.2081 12.9264L77.0583 12.4ZM67.3383 13.27L66.6981 12.5018L66.6917 12.5071L66.6854 12.5126L67.3383 13.27ZM66.2283 15.31L65.2452 15.1271L65.0251 16.31H66.2283V15.31ZM72.8883 15.31V16.31H74.0915L73.8715 15.1271L72.8883 15.31ZM71.7483 13.27L71.0954 14.0274L71.1017 14.0329L71.1081 14.0382L71.7483 13.27ZM77.2283 16.9C77.2283 16.8723 77.2293 16.8688 77.2244 16.9519C77.2208 17.0132 77.2153 17.1018 77.2079 17.2188C77.1929 17.4524 77.1705 17.7937 77.1405 18.2435L79.1361 18.3765C79.1936 17.5135 79.2283 16.9842 79.2283 16.9H77.2283ZM78.1383 17.31H66.3183V19.31H78.1383V17.31ZM65.3568 18.5847C65.6569 19.635 66.2503 20.4878 67.138 21.0883L68.2586 19.4317C67.7863 19.1122 67.4598 18.665 67.2798 18.0353L65.3568 18.5847ZM67.1661 21.1066C68.062 21.6697 69.1283 21.92 70.3083 21.92V19.92C69.4084 19.92 68.7346 19.7303 68.2305 19.4134L67.1661 21.1066ZM70.3083 21.92C71.1782 21.92 71.9786 21.7979 72.684 21.5208L71.9527 19.6592C71.538 19.8221 70.9985 19.92 70.3083 19.92V21.92ZM72.673 21.525C73.3842 21.2552 74.0629 20.8263 74.7113 20.2674L73.4054 18.7526C72.8937 19.1937 72.4125 19.4848 71.9637 19.655L72.673 21.525ZM73.3375 20.2031L76.3375 23.3231L77.7792 21.9369L74.7792 18.8169L73.3375 20.2031ZM76.3142 21.962C74.9747 23.454 72.9707 24.27 70.1283 24.27V26.27C73.366 26.27 75.9819 25.326 77.8025 23.298L76.3142 21.962ZM70.1283 24.27C68.3557 24.27 66.8438 23.9347 65.5655 23.2956L64.6711 25.0844C66.2729 25.8853 68.1009 26.27 70.1283 26.27V24.27ZM65.5655 23.2956C64.2787 22.6522 63.3022 21.7735 62.6063 20.66L60.9103 21.72C61.8144 23.1665 63.0779 24.2878 64.6711 25.0844L65.5655 23.2956ZM62.6123 20.6696C61.9355 19.559 61.5883 18.2918 61.5883 16.84H59.5883C59.5883 18.6282 60.0212 20.261 60.9044 21.7104L62.6123 20.6696ZM61.5883 16.84C61.5883 15.4056 61.9268 14.1571 62.5846 13.0665L60.872 12.0335C60.0099 13.4629 59.5883 15.0744 59.5883 16.84H61.5883ZM62.5823 13.0704C63.266 11.9483 64.2008 11.0719 65.4062 10.4338L64.4704 8.66621C62.9558 9.46806 61.7506 10.5917 60.8744 12.0296L62.5823 13.0704ZM65.4062 10.4338C66.6074 9.79785 67.974 9.47 69.5283 9.47V7.47C67.6826 7.47 65.9892 7.86215 64.4704 8.66621L65.4062 10.4338ZM69.5283 9.47C71.0038 9.47 72.3146 9.77842 73.4804 10.379L74.3963 8.60102C72.9221 7.84158 71.2928 7.47 69.5283 7.47V9.47ZM73.4911 10.3844C74.638 10.9579 75.5355 11.7939 76.1985 12.9105L77.9182 11.8895C77.0612 10.4461 75.8786 9.34211 74.3855 8.59557L73.4911 10.3844ZM76.2081 12.9264C76.8742 14.0025 77.2283 15.3131 77.2283 16.9H79.2283C79.2283 15.0069 78.8024 13.3175 77.9086 11.8736L76.2081 12.9264ZM69.5583 11.52C68.4759 11.52 67.5006 11.833 66.6981 12.5018L67.9785 14.0382C68.376 13.707 68.8808 13.52 69.5583 13.52V11.52ZM66.6854 12.5126C65.9091 13.1818 65.4405 14.0771 65.2452 15.1271L67.2115 15.4929C67.3361 14.8229 67.6075 14.3582 67.9913 14.0274L66.6854 12.5126ZM66.2283 16.31H72.8883V14.31H66.2283V16.31ZM73.8715 15.1271C73.6743 14.0672 73.1891 13.169 72.3885 12.5018L71.1081 14.0382C71.5075 14.371 71.7824 14.8328 71.9052 15.4929L73.8715 15.1271ZM72.4013 12.5126C71.6129 11.833 70.6401 11.52 69.5583 11.52V13.52C70.2366 13.52 70.7237 13.707 71.0954 14.0274L72.4013 12.5126ZM106.806 10.27L106.093 10.9712L106.099 10.9771L106.806 10.27ZM108.606 25V26H109.606V25H108.606ZM102.906 25H101.906V26H102.906V25ZM102.246 14.11L101.457 14.7239L101.464 14.7329L101.471 14.7417L102.246 14.11ZM98.3764 14.2L99.1321 14.8549L99.1321 14.8549L98.3764 14.2ZM97.5964 25V26H98.5964V25H97.5964ZM91.8964 25H90.8964V26H91.8964V25ZM86.5564 25V26H87.5564V25H86.5564ZM80.8564 25H79.8564V26H80.8564V25ZM80.8564 8.74V7.74H79.8564V8.74H80.8564ZM86.2864 8.74H87.2864V7.74H86.2864V8.74ZM86.2864 10.45H85.2864V13.0366L87.0263 11.1227L86.2864 10.45ZM88.4164 8.98L88.7799 9.91165L88.7916 9.90695L88.4164 8.98ZM94.2064 9.1L94.6293 8.19382L94.6293 8.19382L94.2064 9.1ZM96.3964 11.02L95.5584 11.5657L96.3228 12.7396L97.1847 11.6353L96.3964 11.02ZM98.8264 9.13L98.4168 8.21773L98.4168 8.21773L98.8264 9.13ZM102.036 9.47C103.823 9.47 105.136 9.99789 106.093 10.9711L107.519 9.56886C106.116 8.14211 104.25 7.47 102.036 7.47V9.47ZM106.099 10.9771C107.044 11.922 107.606 13.4313 107.606 15.7H109.606C109.606 13.1287 108.969 11.018 107.513 9.56289L106.099 10.9771ZM107.606 15.7V25H109.606V15.7H107.606ZM108.606 24H102.906V26H108.606V24ZM103.906 25V16.63H101.906V25H103.906ZM103.906 16.63C103.906 15.3956 103.674 14.2793 103.022 13.4783L101.471 14.7417C101.698 15.0207 101.906 15.5844 101.906 16.63H103.906ZM103.036 13.4961C102.398 12.6762 101.486 12.3 100.446 12.3V14.3C100.967 14.3 101.255 14.4638 101.457 14.7239L103.036 13.4961ZM100.446 12.3C99.3236 12.3 98.3478 12.7061 97.6207 13.5451L99.1321 14.8549C99.445 14.4939 99.8491 14.3 100.446 14.3V12.3ZM97.6207 13.5451C96.8775 14.4025 96.5964 15.5932 96.5964 16.93H98.5964C98.5964 15.8268 98.8352 15.1975 99.1321 14.8549L97.6207 13.5451ZM96.5964 16.93V25H98.5964V16.93H96.5964ZM97.5964 24H91.8964V26H97.5964V24ZM92.8964 25V16.63H90.8964V25H92.8964ZM92.8964 16.63C92.8964 15.4262 92.6792 14.3418 92.0857 13.5383C91.4503 12.6782 90.5061 12.3 89.4364 12.3V14.3C90.0066 14.3 90.2924 14.4768 90.477 14.7267C90.7035 15.0332 90.8964 15.6138 90.8964 16.63H92.8964ZM89.4364 12.3C88.3016 12.3 87.3126 12.7006 86.5807 13.5451L88.0921 14.8549C88.4002 14.4994 88.8111 14.3 89.4364 14.3V12.3ZM86.5807 13.5451C85.8375 14.4025 85.5564 15.5932 85.5564 16.93H87.5564C87.5564 15.8268 87.7952 15.1975 88.0921 14.8549L86.5807 13.5451ZM85.5564 16.93V25H87.5564V16.93H85.5564ZM86.5564 24H80.8564V26H86.5564V24ZM81.8564 25V8.74H79.8564V25H81.8564ZM80.8564 9.74H86.2864V7.74H80.8564V9.74ZM85.2864 8.74V10.45H87.2864V8.74H85.2864ZM87.0263 11.1227C87.5239 10.5753 88.1056 10.1747 88.7799 9.91158L88.0528 8.04842C87.0871 8.4253 86.2488 9.00472 85.5464 9.77733L87.0263 11.1227ZM88.7916 9.90695C89.503 9.619 90.2844 9.47 91.1464 9.47V7.47C90.0483 7.47 89.0098 7.661 88.0412 8.05305L88.7916 9.90695ZM91.1464 9.47C92.1618 9.47 93.0341 9.65649 93.7835 10.0062L94.6293 8.19382C93.5786 7.70351 92.4109 7.47 91.1464 7.47V9.47ZM93.7835 10.0062C94.5083 10.3444 95.0968 10.8568 95.5584 11.5657L97.2344 10.4743C96.576 9.46322 95.7044 8.69556 94.6293 8.19382L93.7835 10.0062ZM97.1847 11.6353C97.7212 10.9479 98.3995 10.4178 99.236 10.0423L98.4168 8.21773C97.2933 8.72216 96.3516 9.45208 95.6081 10.4047L97.1847 11.6353ZM99.236 10.0423C100.077 9.6646 101.006 9.47 102.036 9.47V7.47C100.747 7.47 99.5356 7.7154 98.4168 8.21773L99.236 10.0423ZM132.454 4H133.454V3H132.454V4ZM132.454 25V26H133.454V25H132.454ZM127.564 25L126.794 25.6379L127.094 26H127.564V25ZM118.294 13.81L119.064 13.1721L117.294 11.0354V13.81H118.294ZM118.294 25V26H119.294V25H118.294ZM112.474 25H111.474V26H112.474V25ZM112.474 4V3H111.474V4H112.474ZM117.364 4L118.134 3.36205L117.834 3H117.364V4ZM126.634 15.19L125.864 15.8279L127.634 17.9646V15.19H126.634ZM126.634 4V3H125.634V4H126.634ZM131.454 4V25H133.454V4H131.454ZM132.454 24H127.564V26H132.454V24ZM128.334 24.3621L119.064 13.1721L117.524 14.4479L126.794 25.6379L128.334 24.3621ZM117.294 13.81V25H119.294V13.81H117.294ZM118.294 24H112.474V26H118.294V24ZM113.474 25V4H111.474V25H113.474ZM112.474 5H117.364V3H112.474V5ZM116.594 4.63795L125.864 15.8279L127.404 14.5521L118.134 3.36205L116.594 4.63795ZM127.634 15.19V4H125.634V15.19H127.634ZM126.634 5H132.454V3H126.634V5ZM136.374 8.74V7.74H135.374V8.74H136.374ZM142.074 8.74H143.074V7.74H142.074V8.74ZM142.074 25V26H143.074V25H142.074ZM136.374 25H135.374V26H136.374V25ZM136.704 6.07L137.375 5.32901L137.375 5.32901L136.704 6.07ZM136.704 1.75L137.375 2.49099L137.375 2.49099L136.704 1.75ZM141.744 1.72L141.085 2.47258L141.092 2.47849L141.099 2.48429L141.744 1.72ZM141.744 6.07L142.415 6.81099L142.422 6.80531L142.428 6.79954L141.744 6.07ZM136.374 9.74H142.074V7.74H136.374V9.74ZM141.074 8.74V25H143.074V8.74H141.074ZM142.074 24H136.374V26H142.074V24ZM137.374 25V8.74H135.374V25H137.374ZM139.224 5.94C138.379 5.94 137.795 5.70965 137.375 5.32901L136.032 6.81099C136.892 7.59035 137.989 7.94 139.224 7.94V5.94ZM137.375 5.32901C136.944 4.93764 136.744 4.48632 136.744 3.91H134.744C134.744 5.05368 135.184 6.04236 136.032 6.81099L137.375 5.32901ZM136.744 3.91C136.744 3.33368 136.944 2.88236 137.375 2.49099L136.032 1.00901C135.184 1.77764 134.744 2.76632 134.744 3.91H136.744ZM137.375 2.49099C137.795 2.11035 138.379 1.88 139.224 1.88V-0.120001C137.989 -0.120001 136.892 0.229653 136.032 1.00901L137.375 2.49099ZM139.224 1.88C140.078 1.88 140.666 2.10563 141.085 2.47258L142.402 0.967423C141.542 0.214369 140.45 -0.120001 139.224 -0.120001V1.88ZM141.099 2.48429C141.507 2.82845 141.704 3.24547 141.704 3.82H143.704C143.704 2.67452 143.261 1.69155 142.389 0.955708L141.099 2.48429ZM141.704 3.82C141.704 4.45169 141.493 4.93498 141.06 5.34046L142.428 6.79954C143.275 6.00502 143.704 4.98831 143.704 3.82H141.704ZM141.072 5.32901C140.652 5.70965 140.069 5.94 139.224 5.94V7.94C140.459 7.94 141.555 7.59035 142.415 6.81099L141.072 5.32901ZM153.158 19.3L153.939 18.6753L153.235 17.7951L152.445 18.5992L153.158 19.3ZM151.478 21.01L150.765 20.3092L150.478 20.601V21.01H151.478ZM151.478 25V26H152.478V25H151.478ZM145.778 25H144.778V26H145.778V25ZM145.778 2.74V1.74H144.778V2.74H145.778ZM151.478 2.74H152.478V1.74H151.478V2.74ZM151.478 14.41H150.478V16.7803L152.176 15.1263L151.478 14.41ZM157.298 8.74V7.74H156.892L156.6 8.02372L157.298 8.74ZM164.048 8.74L164.766 9.43619L166.411 7.74H164.048V8.74ZM157.298 15.7L156.58 15.0038L155.972 15.6314L156.512 16.3185L157.298 15.7ZM164.618 25V26H166.678L165.404 24.3815L164.618 25ZM157.718 25L156.937 25.6247L157.238 26H157.718V25ZM152.445 18.5992L150.765 20.3092L152.192 21.7108L153.872 20.0008L152.445 18.5992ZM150.478 21.01V25H152.478V21.01H150.478ZM151.478 24H145.778V26H151.478V24ZM146.778 25V2.74H144.778V25H146.778ZM145.778 3.74H151.478V1.74H145.778V3.74ZM150.478 2.74V14.41H152.478V2.74H150.478ZM152.176 15.1263L157.996 9.45628L156.6 8.02372L150.78 13.6937L152.176 15.1263ZM157.298 9.74H164.048V7.74H157.298V9.74ZM163.33 8.0438L156.58 15.0038L158.016 16.3962L164.766 9.43619L163.33 8.0438ZM156.512 16.3185L163.832 25.6185L165.404 24.3815L158.084 15.0815L156.512 16.3185ZM164.618 24H157.718V26H164.618V24ZM158.499 24.3753L153.939 18.6753L152.377 19.9247L156.937 25.6247L158.499 24.3753ZM183.152 8.74H184.152V7.74H183.152V8.74ZM183.152 25V26H184.152V25H183.152ZM177.722 25H176.722V26H177.722V25ZM177.722 23.26H178.722V20.6734L176.982 22.5873L177.722 23.26ZM175.562 24.76L175.186 23.8331L175.186 23.8331L175.562 24.76ZM167.852 23.41L167.145 24.1171L167.15 24.1227L167.852 23.41ZM165.992 8.74V7.74H164.992V8.74H165.992ZM171.692 8.74H172.692V7.74H171.692V8.74ZM172.382 19.57L173.154 18.9353L172.382 19.57ZM176.582 19.48L175.841 18.8085L175.84 18.8097L176.582 19.48ZM177.452 8.74V7.74H176.452V8.74H177.452ZM182.152 8.74V25H184.152V8.74H182.152ZM183.152 24H177.722V26H183.152V24ZM178.722 25V23.26H176.722V25H178.722ZM176.982 22.5873C176.484 23.1345 175.89 23.5484 175.186 23.8331L175.937 25.6869C176.914 25.2916 177.759 24.7055 178.462 23.9327L176.982 22.5873ZM175.186 23.8331C174.47 24.123 173.708 24.27 172.892 24.27V26.27C173.955 26.27 174.973 26.077 175.937 25.6869L175.186 23.8331ZM172.892 24.27C171.001 24.27 169.592 23.7192 168.553 22.6973L167.15 24.1227C168.632 25.5808 170.582 26.27 172.892 26.27V24.27ZM168.559 22.7029C167.572 21.7166 166.992 20.1559 166.992 17.83H164.992C164.992 20.4641 165.651 22.6234 167.145 24.1171L168.559 22.7029ZM166.992 17.83V8.74H164.992V17.83H166.992ZM165.992 9.74H171.692V7.74H165.992V9.74ZM170.692 8.74V16.9H172.692V8.74H170.692ZM170.692 16.9C170.692 18.2065 170.931 19.3791 171.609 20.2047L173.154 18.9353C172.913 18.6409 172.692 18.0335 172.692 16.9H170.692ZM171.609 20.2047C172.3 21.0455 173.283 21.41 174.392 21.41V19.41C173.74 19.41 173.384 19.2145 173.154 18.9353L171.609 20.2047ZM174.392 21.41C175.55 21.41 176.558 20.9978 177.324 20.1503L175.84 18.8097C175.485 19.2022 175.033 19.41 174.392 19.41V21.41ZM177.323 20.1515C178.136 19.2537 178.452 17.9963 178.452 16.57H176.452C176.452 17.7437 176.187 18.4263 175.841 18.8085L177.323 20.1515ZM178.452 16.57V8.74H176.452V16.57H178.452ZM177.452 9.74H183.152V7.74H177.452V9.74ZM186.823 2.74V1.74H185.823V2.74H186.823ZM192.523 2.74H193.523V1.74H192.523V2.74ZM192.523 25V26H193.523V25H192.523ZM186.823 25H185.823V26H186.823V25ZM186.823 3.74H192.523V1.74H186.823V3.74ZM191.523 2.74V25H193.523V2.74H191.523ZM192.523 24H186.823V26H192.523V24ZM187.823 25V2.74H185.823V25H187.823ZM196.227 8.74V7.74H195.227V8.74H196.227ZM201.927 8.74H202.927V7.74H201.927V8.74ZM201.927 25V26H202.927V25H201.927ZM196.227 25H195.227V26H196.227V25ZM196.557 6.07L197.229 5.32901L197.229 5.32901L196.557 6.07ZM196.557 1.75L197.229 2.49099L197.229 2.49099L196.557 1.75ZM201.597 1.72L200.939 2.47258L200.946 2.47849L200.953 2.48429L201.597 1.72ZM201.597 6.07L202.269 6.81099L202.275 6.80531L202.281 6.79954L201.597 6.07ZM196.227 9.74H201.927V7.74H196.227V9.74ZM200.927 8.74V25H202.927V8.74H200.927ZM201.927 24H196.227V26H201.927V24ZM197.227 25V8.74H195.227V25H197.227ZM199.077 5.94C198.232 5.94 197.649 5.70965 197.229 5.32901L195.886 6.81099C196.746 7.59035 197.843 7.94 199.077 7.94V5.94ZM197.229 5.32901C196.797 4.93764 196.597 4.48632 196.597 3.91H194.597C194.597 5.05368 195.038 6.04236 195.886 6.81099L197.229 5.32901ZM196.597 3.91C196.597 3.33368 196.797 2.88236 197.229 2.49099L195.886 1.00901C195.038 1.77764 194.597 2.76632 194.597 3.91H196.597ZM197.229 2.49099C197.649 2.11035 198.232 1.88 199.077 1.88V-0.120001C197.843 -0.120001 196.746 0.229653 195.886 1.00901L197.229 2.49099ZM199.077 1.88C199.932 1.88 200.52 2.10563 200.939 2.47258L202.256 0.967423C201.395 0.214369 200.303 -0.120001 199.077 -0.120001V1.88ZM200.953 2.48429C201.36 2.82845 201.557 3.24547 201.557 3.82H203.557C203.557 2.67452 203.114 1.69155 202.242 0.955708L200.953 2.48429ZM201.557 3.82C201.557 4.45169 201.346 4.93498 200.914 5.34046L202.281 6.79954C203.129 6.00502 203.557 4.98831 203.557 3.82H201.557ZM200.926 5.32901C200.506 5.70965 199.923 5.94 199.077 5.94V7.94C200.312 7.94 201.409 7.59035 202.269 6.81099L200.926 5.32901ZM221.082 10.27L220.38 10.9829L220.386 10.9886L221.082 10.27ZM222.942 25V26H223.942V25H222.942ZM217.242 25H216.242V26H217.242V25ZM212.202 14.26L211.472 13.5761L211.466 13.5822L211.461 13.5885L212.202 14.26ZM211.332 25V26H212.332V25H211.332ZM205.632 25H204.632V26H205.632V25ZM205.632 8.74V7.74H204.632V8.74H205.632ZM211.062 8.74H212.062V7.74H211.062V8.74ZM211.062 10.51H210.062V12.9777L211.78 11.2061L211.062 10.51ZM213.342 9.01L213.702 9.9428L213.711 9.93926L213.72 9.93555L213.342 9.01ZM216.222 9.47C218.03 9.47 219.381 9.99969 220.381 10.9829L221.783 9.55707C220.343 8.14031 218.453 7.47 216.222 7.47V9.47ZM220.386 10.9886C221.364 11.9349 221.942 13.4398 221.942 15.7H223.942C223.942 13.1202 223.279 11.0051 221.777 9.5514L220.386 10.9886ZM221.942 15.7V25H223.942V15.7H221.942ZM222.942 24H217.242V26H222.942V24ZM218.242 25V16.63H216.242V25H218.242ZM218.242 16.63C218.242 15.4128 218.002 14.3147 217.354 13.5069C216.673 12.657 215.682 12.3 214.572 12.3V14.3C215.242 14.3 215.586 14.498 215.794 14.7581C216.036 15.0603 216.242 15.6272 216.242 16.63H218.242ZM214.572 12.3C213.351 12.3 212.284 12.7097 211.472 13.5761L212.931 14.9439C213.319 14.5303 213.832 14.3 214.572 14.3V12.3ZM211.461 13.5885C210.649 14.4838 210.332 15.7289 210.332 17.14H212.332C212.332 15.9911 212.594 15.3162 212.943 14.9315L211.461 13.5885ZM210.332 17.14V25H212.332V17.14H210.332ZM211.332 24H205.632V26H211.332V24ZM206.632 25V8.74H204.632V25H206.632ZM205.632 9.74H211.062V7.74H205.632V9.74ZM210.062 8.74V10.51H212.062V8.74H210.062ZM211.78 11.2061C212.316 10.6527 212.953 10.2321 213.702 9.9428L212.981 8.0772C211.97 8.46791 211.087 9.04729 210.344 9.81385L211.78 11.2061ZM213.72 9.93555C214.469 9.62914 215.299 9.47 216.222 9.47V7.47C215.064 7.47 213.974 7.67086 212.963 8.08445L213.72 9.93555ZM225.05 30.82H224.05V31.82H225.05V30.82ZM225.05 26.47V25.47H224.05V26.47H225.05ZM228.53 26.47V27.47H229.53V26.47H228.53ZM228.53 7.09H229.53V6.09H228.53V7.09ZM225.05 7.09H224.05V8.09H225.05V7.09ZM225.05 2.74V1.74H224.05V2.74H225.05ZM234.23 2.74H235.23V1.74H234.23V2.74ZM234.23 30.82V31.82H235.23V30.82H234.23ZM226.05 30.82V26.47H224.05V30.82H226.05ZM225.05 27.47H228.53V25.47H225.05V27.47ZM229.53 26.47V7.09H227.53V26.47H229.53ZM228.53 6.09H225.05V8.09H228.53V6.09ZM226.05 7.09V2.74H224.05V7.09H226.05ZM225.05 3.74H234.23V1.74H225.05V3.74ZM233.23 2.74V30.82H235.23V2.74H233.23ZM234.23 29.82H225.05V31.82H234.23V29.82Z" fill="black"/>
</g>
<defs>
<filter id="filter0_d_3_540" x="0.74939" y="0.879883" width="237.481" height="37.9402" filterUnits="userSpaceOnUse" color-interpolation-filters="sRGB">
<feFlood flood-opacity="0" result="BackgroundImageFix"/>
<feColorMatrix in="SourceAlpha" type="matrix" values="0 0 0 0 0 0 0 0 0 0 0 0 0 0 0 0 0 0 127 0" result="hardAlpha"/>
<feOffset dy="4"/>
<feGaussianBlur stdDeviation="2"/>
<feComposite in2="hardAlpha" operator="out"/>
<feColorMatrix type="matrix" values="0 0 0 0 0 0 0 0 0 0 0 0 0 0 0 0 0 0 0.25 0"/>
<feBlend mode="normal" in2="BackgroundImageFix" result="effect1_dropShadow_3_540"/>
<feBlend mode="normal" in="SourceGraphic" in2="effect1_dropShadow_3_540" result="shape"/>
</filter>
</defs>
</svg>
